<svg viewBox="0 0 600 450" xmlns="http://www.w3.org/2000/svg" role="img" aria-label="Pevaris — Technology that isn&#39;t delivering">
  <title>Technology that isn&#39;t delivering</title>
  <defs>
    <filter id="grain01" x="0" y="0" width="100%" height="100%">
      <feTurbulence type="fractalNoise" baseFrequency="0.9" numOctaves="2" seed="7"></feTurbulence>
      <feColorMatrix values="0 0 0 0 0.91  0 0 0 0 0.87  0 0 0 0 0.82  0 0 0 0.06 0"></feColorMatrix>
      <feComposite in2="SourceGraphic" operator="in"></feComposite>
    </filter>
    <radialGradient id="vignette01" cx="50%" cy="55%" r="75%">
      <stop offset="55%" stop-color="#14281D" stop-opacity="0"></stop>
      <stop offset="100%" stop-color="#0B1A12" stop-opacity="0.55"></stop>
    </radialGradient>
    <linearGradient id="gap01" x1="0" y1="0" x2="1" y2="0">
      <stop offset="0%" stop-color="#14281D" stop-opacity="0"></stop>
      <stop offset="50%" stop-color="#14281D" stop-opacity="0.85"></stop>
      <stop offset="100%" stop-color="#14281D" stop-opacity="0"></stop>
    </linearGradient>
  </defs>

  
  <rect width="600" height="450" fill="#14281D"></rect>
  <rect width="600" height="450" fill="#355834" opacity="0.08"></rect>

  
  <g stroke="#355834" stroke-width="0.5" opacity="0.32">
    <line x1="60" y1="30" x2="60" y2="420"></line><line x1="120" y1="30" x2="120" y2="420"></line>
    <line x1="180" y1="30" x2="180" y2="420"></line><line x1="240" y1="30" x2="240" y2="420"></line>
    <line x1="300" y1="30" x2="300" y2="420"></line><line x1="360" y1="30" x2="360" y2="420"></line>
    <line x1="420" y1="30" x2="420" y2="420"></line><line x1="480" y1="30" x2="480" y2="420"></line>
    <line x1="540" y1="30" x2="540" y2="420"></line>
    <line x1="30" y1="60" x2="570" y2="60"></line><line x1="30" y1="120" x2="570" y2="120"></line>
    <line x1="30" y1="180" x2="570" y2="180"></line><line x1="30" y1="240" x2="570" y2="240"></line>
    <line x1="30" y1="300" x2="570" y2="300"></line><line x1="30" y1="360" x2="570" y2="360"></line>
  </g>

  <rect x="30" y="30" width="540" height="390" fill="none" stroke="#355834" stroke-width="0.75" opacity="0.55"></rect>

  
  <g>
    <g stroke="#7A9A78" stroke-width="0.5" opacity="0.5">
      <line x1="70" y1="90" x2="120" y2="130"></line>
      <line x1="70" y1="90" x2="90" y2="180"></line>
      <line x1="120" y1="130" x2="170" y2="110"></line>
      <line x1="120" y1="130" x2="160" y2="200"></line>
      <line x1="90" y1="180" x2="160" y2="200"></line>
      <line x1="160" y1="200" x2="210" y2="170"></line>
      <line x1="160" y1="200" x2="200" y2="270"></line>
      <line x1="200" y1="270" x2="140" y2="310"></line>
      <line x1="200" y1="270" x2="240" y2="320"></line>
      <line x1="70" y1="350" x2="140" y2="310"></line>
      <line x1="140" y1="310" x2="90" y2="240"></line>
      <line x1="90" y1="240" x2="90" y2="180"></line>
      <line x1="170" y1="110" x2="240" y2="140"></line>
      <line x1="240" y1="140" x2="210" y2="170"></line>
      <line x1="240" y1="140" x2="260" y2="220"></line>
      <line x1="260" y1="220" x2="240" y2="320"></line>
      <line x1="240" y1="320" x2="260" y2="380"></line>
    </g>
    <g fill="#E7DFD0">
      <circle cx="70" cy="90" r="2.5"></circle><circle cx="120" cy="130" r="3"></circle>
      <circle cx="90" cy="180" r="2.5"></circle><circle cx="170" cy="110" r="2.5"></circle>
      <circle cx="160" cy="200" r="3.5"></circle><circle cx="210" cy="170" r="2.5"></circle>
      <circle cx="240" cy="140" r="2.5"></circle><circle cx="200" cy="270" r="3"></circle>
      <circle cx="140" cy="310" r="2.5"></circle><circle cx="240" cy="320" r="2.5"></circle>
      <circle cx="70" cy="350" r="2.5"></circle><circle cx="260" cy="220" r="2.5"></circle>
      <circle cx="90" cy="240" r="2.5"></circle><circle cx="260" cy="380" r="2.5"></circle>
    </g>
  </g>

  
  <g fill="none" stroke="#A8C3A0" stroke-width="0.8" opacity="0.55">
    <path d="M 240 140 C 280 140, 310 150, 340 160" stroke-dasharray="0"></path>
    <path d="M 340 160 C 380 168, 400 178, 430 195" stroke-dasharray="2 3" opacity="0.4"></path>
    <path d="M 200 270 C 260 270, 300 280, 340 285" stroke-dasharray="0"></path>
    <path d="M 340 285 C 390 290, 410 296, 440 305" stroke-dasharray="2 3" opacity="0.35"></path>
    <path d="M 240 320 C 290 320, 320 332, 350 340" stroke-dasharray="0"></path>
    <path d="M 350 340 C 400 348, 420 354, 450 360" stroke-dasharray="1 4" opacity="0.3"></path>
  </g>

  
  <rect x="290" y="30" width="60" height="390" fill="url(#gap01)" opacity="0.5"></rect>

  
  <g fill="#5A7B59" opacity="0.55">
    <circle cx="400" cy="120" r="2"></circle>
    <circle cx="450" cy="190" r="2"></circle>
    <circle cx="500" cy="240" r="2"></circle>
    <circle cx="430" cy="280" r="2"></circle>
    <circle cx="490" cy="340" r="2"></circle>
    <circle cx="380" cy="370" r="2"></circle>
  </g>

  
  <g transform="translate(480,210)">
    <circle r="44" fill="none" stroke="#355834" stroke-width="0.6" opacity="0.5" stroke-dasharray="2 3"></circle>
    <circle r="28" fill="none" stroke="#355834" stroke-width="0.6" opacity="0.55" stroke-dasharray="2 3"></circle>
    <circle r="14" fill="none" stroke="#5A7B59" stroke-width="0.6" opacity="0.6" stroke-dasharray="2 3"></circle>
    <circle r="3" fill="none" stroke="#A8C3A0" stroke-width="0.6" opacity="0.55"></circle>
    <line x1="-8" y1="0" x2="-3" y2="0" stroke="#A8C3A0" stroke-width="0.5" opacity="0.4"></line>
    <line x1="3" y1="0" x2="8" y2="0" stroke="#A8C3A0" stroke-width="0.5" opacity="0.4"></line>
    <line x1="0" y1="-8" x2="0" y2="-3" stroke="#A8C3A0" stroke-width="0.5" opacity="0.4"></line>
    <line x1="0" y1="3" x2="0" y2="8" stroke="#A8C3A0" stroke-width="0.5" opacity="0.4"></line>
  </g>

  
  <g fill="#E7DFD0" font-family="&#39;JetBrains Mono&#39;, ui-monospace, monospace" font-size="8" letter-spacing="0.5">
    <text x="44" y="50" opacity="0.7">01 / STRATEGY</text>
    <text x="44" y="62" opacity="0.5">12 initiatives · all documented</text>
    <text x="380" y="50" opacity="0.7">02 / DELIVERY</text>
    <text x="380" y="62" opacity="0.5">— · stalled</text>
    <text x="295" y="220" opacity="0.7" font-size="9">⌀</text>
    <text x="280" y="240" opacity="0.55" font-size="7">THE GAP</text>
    <text x="44" y="400" opacity="0.55">PEVARIS — TECHNOLOGY DELIVERY GAP · PLAN VIEW</text>
    <text x="556" y="400" text-anchor="end" opacity="0.55">REV 04 · NO LIVE ROUTE</text>
  </g>

  
  <rect width="600" height="450" fill="url(#vignette01)"></rect>
  <rect width="600" height="450" filter="url(#grain01)" opacity="0.4"></rect>
  <rect x="0.5" y="0.5" width="599" height="449" fill="none" stroke="#0B1A12" stroke-width="1"></rect>
</svg>