<svg viewBox="0 0 600 450" xmlns="http://www.w3.org/2000/svg" role="img" aria-label="Pevaris — Fractional Leadership">
  <title>Fractional Leadership</title>
  <defs>
    <filter id="grain02L" x="0" y="0" width="100%" height="100%">
      <feTurbulence type="fractalNoise" baseFrequency="0.9" numOctaves="2" seed="11"></feTurbulence>
      <feColorMatrix values="0 0 0 0 0.08  0 0 0 0 0.16  0 0 0 0 0.11  0 0 0 0.08 0"></feColorMatrix>
      <feComposite in2="SourceGraphic" operator="in"></feComposite>
    </filter>
    <radialGradient id="vignette02L" cx="50%" cy="55%" r="75%">
      <stop offset="55%" stop-color="#F2EBDB" stop-opacity="0"></stop>
      <stop offset="100%" stop-color="#CFC6B0" stop-opacity="0.55"></stop>
    </radialGradient>
    <radialGradient id="goldHalo02L" cx="50%" cy="50%" r="50%">
      <stop offset="0%" stop-color="#E8D79A" stop-opacity="0.9"></stop>
      <stop offset="55%" stop-color="#B9A563" stop-opacity="0.45"></stop>
      <stop offset="100%" stop-color="#B9A563" stop-opacity="0"></stop>
    </radialGradient>
  </defs>

  <rect width="600" height="450" fill="#F2EBDB"></rect>
  <rect width="600" height="450" fill="#355834" opacity="0.08"></rect>

  <g stroke="#355834" stroke-width="0.5" opacity="0.32">
    <line x1="60" y1="30" x2="60" y2="420"></line><line x1="120" y1="30" x2="120" y2="420"></line>
    <line x1="180" y1="30" x2="180" y2="420"></line><line x1="240" y1="30" x2="240" y2="420"></line>
    <line x1="300" y1="30" x2="300" y2="420"></line><line x1="360" y1="30" x2="360" y2="420"></line>
    <line x1="420" y1="30" x2="420" y2="420"></line><line x1="480" y1="30" x2="480" y2="420"></line>
    <line x1="540" y1="30" x2="540" y2="420"></line>
    <line x1="30" y1="60" x2="570" y2="60"></line><line x1="30" y1="120" x2="570" y2="120"></line>
    <line x1="30" y1="180" x2="570" y2="180"></line><line x1="30" y1="240" x2="570" y2="240"></line>
    <line x1="30" y1="300" x2="570" y2="300"></line><line x1="30" y1="360" x2="570" y2="360"></line>
  </g>

  <rect x="30" y="30" width="540" height="390" fill="none" stroke="#355834" stroke-width="0.75" opacity="0.55"></rect>

  
  <g transform="translate(300,230)">
    
    <ellipse cx="0" cy="6" rx="160" ry="68" fill="#CFC6B0" opacity="0.55"></ellipse>
    
    <rect x="-150" y="-58" width="300" height="116" rx="58" fill="none" stroke="#14281D" stroke-width="1.1" opacity="0.85"></rect>
    <rect x="-144" y="-52" width="288" height="104" rx="52" fill="none" stroke="#355834" stroke-width="0.6" opacity="0.6"></rect>

    
    <g stroke="#B9A563" stroke-width="0.6" opacity="0.45" stroke-dasharray="1 3">
      <line x1="0" y1="-100" x2="-120" y2="-80"></line>
      <line x1="0" y1="-100" x2="-40" y2="-80"></line>
      <line x1="0" y1="-100" x2="40" y2="-80"></line>
      <line x1="0" y1="-100" x2="120" y2="-80"></line>
      <line x1="0" y1="-100" x2="-120" y2="80"></line>
      <line x1="0" y1="-100" x2="120" y2="80"></line>
      <line x1="0" y1="-100" x2="0" y2="80"></line>
    </g>

    
    <g>
      <circle cx="-120" cy="-80" r="14" fill="#F2EBDB" stroke="#14281D" stroke-width="0.9"></circle>
      <circle cx="-40" cy="-80" r="14" fill="#F2EBDB" stroke="#14281D" stroke-width="0.9"></circle>
      
      <circle cx="0" cy="-100" r="22" fill="url(#goldHalo02L)"></circle>
      <circle cx="0" cy="-100" r="14" fill="#B9A563" stroke="#E8D79A" stroke-width="1"></circle>
      <circle cx="40" cy="-80" r="14" fill="#F2EBDB" stroke="#14281D" stroke-width="0.9"></circle>
      <circle cx="120" cy="-80" r="14" fill="#F2EBDB" stroke="#14281D" stroke-width="0.9"></circle>
      
      <circle cx="-160" cy="0" r="14" fill="#F2EBDB" stroke="#14281D" stroke-width="0.9"></circle>
      <circle cx="160" cy="0" r="14" fill="#F2EBDB" stroke="#14281D" stroke-width="0.9"></circle>
      
      <circle cx="-120" cy="80" r="14" fill="#F2EBDB" stroke="#14281D" stroke-width="0.9"></circle>
      <circle cx="-40" cy="80" r="14" fill="#F2EBDB" stroke="#14281D" stroke-width="0.9"></circle>
      <circle cx="40" cy="80" r="14" fill="#F2EBDB" stroke="#14281D" stroke-width="0.9"></circle>
      <circle cx="120" cy="80" r="14" fill="#F2EBDB" stroke="#14281D" stroke-width="0.9"></circle>
    </g>

    
    <g stroke="#B9A563" stroke-width="0.7" fill="none" opacity="0.85">
      <path d="M -26 -118 L -32 -118 L -32 -82"></path>
      <path d="M 26 -118 L 32 -118 L 32 -82"></path>
    </g>

    
    <g fill="#14281D" font-family="&#39;JetBrains Mono&#39;, ui-monospace, monospace" font-size="6.5" text-anchor="middle" opacity="0.7" letter-spacing="0.5">
      <text x="-120" y="-77">CEO</text>
      <text x="-40" y="-77">CFO</text>
      <text x="40" y="-77">COO</text>
      <text x="120" y="-77">CMO</text>
      <text x="-160" y="3">CHAIR</text>
      <text x="160" y="3">NED</text>
      <text x="-120" y="83">CTO</text>
      <text x="-40" y="83">CPO</text>
      <text x="40" y="83">VP·E</text>
      <text x="120" y="83">VP·P</text>
    </g>

    
    <g fill="#14281D" font-family="&#39;JetBrains Mono&#39;, ui-monospace, monospace" font-size="6.5" font-weight="700" text-anchor="middle">
      <text x="0" y="-97">PVRS</text>
    </g>
    <text x="0" y="-130" font-family="&#39;JetBrains Mono&#39;, ui-monospace, monospace" font-size="7" fill="#B9A563" text-anchor="middle" letter-spacing="2">FRACTIONAL · EMBEDDED</text>

    
    <circle cx="0" cy="0" r="2" fill="#355834" opacity="0.7"></circle>
  </g>

  
  <g fill="#14281D" font-family="&#39;JetBrains Mono&#39;, ui-monospace, monospace" font-size="8" letter-spacing="0.5">
    <text x="44" y="50" opacity="0.7">01 / BOARD ROOM</text>
    <text x="44" y="62" opacity="0.5">12 seats · 1 embedded</text>
    <text x="500" y="50" text-anchor="end" opacity="0.5">CTO · CPO · CAIO</text>
    <text x="44" y="400" opacity="0.55">PEVARIS — FRACTIONAL LEADERSHIP · PLAN VIEW</text>
    <text x="556" y="400" text-anchor="end" opacity="0.55">REV 04 · BOARD LEVEL</text>
  </g>

  <rect width="600" height="450" fill="url(#vignette02L)"></rect>
  <rect width="600" height="450" filter="url(#grain02L)" opacity="0.4"></rect>
  <rect x="0.5" y="0.5" width="599" height="449" fill="none" stroke="#CFC6B0" stroke-width="1"></rect>
</svg>